<svg id="Layer_1" data-name="Layer 1" xmlns="http://www.w3.org/2000/svg" viewBox="0 0 18.5 23.77"><path d="M15.75,0h-13A2.75,2.75,0,0,0,0,2.75V22a1.73,1.73,0,0,0,1.15,1.64,1.74,1.74,0,0,0,1.94-.51l6.16-7.3,6.16,7.29a1.73,1.73,0,0,0,1.33.63,1.87,1.87,0,0,0,.61-.11A1.73,1.73,0,0,0,18.5,22V2.75A2.75,2.75,0,0,0,15.75,0Zm.81,22.18-6.74-8a.78.78,0,0,0-1.14,0l-6.74,8a.23.23,0,0,1-.28.07A.24.24,0,0,1,1.5,22V2.75A1.25,1.25,0,0,1,2.75,1.5h13A1.25,1.25,0,0,1,17,2.75V22a.24.24,0,0,1-.16.23A.23.23,0,0,1,16.56,22.18Z"/></svg>