<svg id="Layer_1" data-name="Layer 1" xmlns="http://www.w3.org/2000/svg" viewBox="0 0 22 23.54"><path d="M0,11.85V1.57A1.46,1.46,0,0,1,.4.46C.53.33.59.33.72.46,3,2.82,5.4,5.17,7.71,7.53c1.51,1.51,3,3.08,4.54,4.59.13.13.13.19,0,.39C8.5,16.05,4.81,19.71,1.12,23.38a.41.41,0,0,1-.59.06A1.39,1.39,0,0,1,0,22.27V11.85Z"/><path d="M1.32,0A1.14,1.14,0,0,1,2,.2c4.74,2.62,9.48,5.24,14.16,7.92.2.13.2.2.06.33L13,11.59c-.13.13-.2.2-.33,0L1.38.13A.22.22,0,0,0,1.32,0Z"/><path d="M2.37,23.31C5.8,19.84,9.22,16.44,12.65,13c.19-.2.33-.2.52,0,.86.91,1.78,1.76,2.64,2.68.13.13.2.2-.07.33-4.41,2.42-8.82,4.78-13.24,7.2A.13.13,0,0,1,2.37,23.31Z"/><path d="M22,11.92a1,1,0,0,1-.46.85c-.2.13-.46.26-.66.39-1.32.72-2.7,1.44-4,2.23-.2.13-.26.06-.46-.07-.92-1-1.91-2-2.83-2.88-.13-.13-.13-.19,0-.33,1.12-1.11,2.24-2.22,3.36-3.27.13-.13.2-.13.39-.07,1.32.72,2.64,1.45,3.95,2.23A1.08,1.08,0,0,1,22,11.92Z"/></svg>