<svg id="Layer_1" data-name="Layer 1" xmlns="http://www.w3.org/2000/svg" viewBox="0 0 24 24"><path d="M12,2.16c3.21,0,3.59,0,4.85.07a6.61,6.61,0,0,1,2.22.41,3.75,3.75,0,0,1,1.38.9,3.75,3.75,0,0,1,.9,1.38,6.67,6.67,0,0,1,.41,2.22c.06,1.27.07,1.65.07,4.85s0,3.59-.07,4.85a6.61,6.61,0,0,1-.41,2.22,4,4,0,0,1-2.28,2.28,6.67,6.67,0,0,1-2.22.41c-1.27.06-1.65.07-4.85.07s-3.59,0-4.85-.07a6.61,6.61,0,0,1-2.22-.41,3.75,3.75,0,0,1-1.38-.9,3.75,3.75,0,0,1-.9-1.38,6.67,6.67,0,0,1-.41-2.22c-.06-1.27-.07-1.65-.07-4.85s0-3.59.07-4.85a6.61,6.61,0,0,1,.41-2.22,3.75,3.75,0,0,1,.9-1.38,3.75,3.75,0,0,1,1.38-.9,6.67,6.67,0,0,1,2.22-.41C8.41,2.17,8.79,2.16,12,2.16ZM12,0C8.74,0,8.33,0,7.05.07A8.76,8.76,0,0,0,4.14.63,5.82,5.82,0,0,0,2,2,5.82,5.82,0,0,0,.63,4.14,8.76,8.76,0,0,0,.07,7.05C0,8.33,0,8.74,0,12S0,15.67.07,17a8.76,8.76,0,0,0,.56,2.91A5.82,5.82,0,0,0,2,22a5.82,5.82,0,0,0,2.12,1.39,8.79,8.79,0,0,0,2.91.55C8.33,24,8.74,24,12,24s3.66,0,4.94-.08a8.74,8.74,0,0,0,2.91-.55,6.15,6.15,0,0,0,3.51-3.51A9,9,0,0,0,23.92,17c0-1.28.07-1.69.07-4.95s0-3.66-.07-4.94a9,9,0,0,0-.56-2.91A5.62,5.62,0,0,0,22,2,5.82,5.82,0,0,0,19.86.63,8.74,8.74,0,0,0,17,.08C15.67,0,15.26,0,12,0Z"/><path d="M12,5.84A6.16,6.16,0,1,0,18.16,12,6.16,6.16,0,0,0,12,5.84ZM12,16a4,4,0,1,1,4-4A4,4,0,0,1,12,16Z"/><path d="M19.85,5.59a1.44,1.44,0,1,1-1.44-1.44A1.44,1.44,0,0,1,19.85,5.59Z"/></svg>