<svg id="Layer_1" data-name="Layer 1" xmlns="http://www.w3.org/2000/svg" viewBox="0 0 13.41 19.8"><path d="M1.87,15.66a1.8,1.8,0,0,1-1.32-.55,1.88,1.88,0,0,1,0-2.66,1.86,1.86,0,0,1,1.32-.53,1.86,1.86,0,0,1,1.32.53,1.88,1.88,0,0,1,0,2.66A1.8,1.8,0,0,1,1.87,15.66Zm0-8.44A1.84,1.84,0,0,1,.55,6.67,1.8,1.8,0,0,1,0,5.35,1.79,1.79,0,0,1,.55,4a1.85,1.85,0,0,1,1.32-.52A1.85,1.85,0,0,1,3.19,4a1.79,1.79,0,0,1,.55,1.35,1.8,1.8,0,0,1-.55,1.32A1.84,1.84,0,0,1,1.87,7.22ZM6.81,9.68a13.82,13.82,0,0,1,.55-4.11,18.3,18.3,0,0,1,1.21-3A12,12,0,0,1,10.33,0h3.08a12.74,12.74,0,0,0-1.89,2.53c-.24.41-.47.87-.71,1.39a13.1,13.1,0,0,0-.59,1.65A16.64,16.64,0,0,0,9.78,7.5a15.23,15.23,0,0,0-.15,2.18v.44a15.31,15.31,0,0,0,.15,2.2,17.27,17.27,0,0,0,.44,1.91,13.1,13.1,0,0,0,.59,1.65c.24.52.47,1,.71,1.39a12.74,12.74,0,0,0,1.89,2.53H10.26a11.5,11.5,0,0,1-1.73-2.53,12.15,12.15,0,0,1-.64-1.39,11.8,11.8,0,0,1-.55-1.65c-.16-.6-.29-1.24-.4-1.91a17,17,0,0,1-.13-2.2Z"/></svg>