<svg id="Layer_1" data-name="Layer 1" xmlns="http://www.w3.org/2000/svg" xmlns:xlink="http://www.w3.org/1999/xlink" viewBox="0 0 16 16"><defs><style>.cls-1{fill:none;}.cls-2{clip-path:url(#clip-path);}.cls-3{fill-rule:evenodd;}</style><clipPath id="clip-path"><rect class="cls-1" width="16" height="16"/></clipPath></defs><g class="cls-2"><path class="cls-3" d="M2.35.24A1,1,0,0,1,3.76.35l12,14a1,1,0,0,1-1.52,1.3L11.94,13A7.7,7.7,0,0,1,8,14C3.39,14,1.14,10.51.11,8.45a1,1,0,0,1,0-.9A10.88,10.88,0,0,1,3.64,3.28L2.24,1.65A1,1,0,0,1,2.35.24ZM9.76,10.43l.85,1A5.91,5.91,0,0,1,8,12C4.87,12,3.14,9.85,2.13,8A8.12,8.12,0,0,1,5,4.82l.91,1.07a3,3,0,0,0,3.89,4.54ZM7.58,3A1,1,0,0,1,8.65,2c4.18.32,6.26,3.57,7.24,5.53a1,1,0,0,1,0,.9v0a7.39,7.39,0,0,1-1.18,1.74,1,1,0,0,1-1.42-1.42A3.65,3.65,0,0,0,13.87,8c-1-1.76-2.56-3.77-5.37-4A1,1,0,0,1,7.58,3Z"/></g></svg>