<svg id="Layer_1" data-name="Layer 1" xmlns="http://www.w3.org/2000/svg" viewBox="0 0 24 24"><defs><style>.cls-1{fill-rule:evenodd;}</style></defs><path class="cls-1" d="M5.73,0A1.72,1.72,0,0,0,4,1.73V3H1.5A1.5,1.5,0,0,0,0,4.5V7a6,6,0,0,0,4.19,5.72A8,8,0,0,0,9,18.42V21H7.5a1.5,1.5,0,0,0,0,3h9a1.5,1.5,0,0,0,0-3H15V18.42a8,8,0,0,0,4.81-5.7A6,6,0,0,0,24,7V4.5A1.5,1.5,0,0,0,22.5,3H20V1.73A1.72,1.72,0,0,0,18.27,0ZM22,7a4,4,0,0,1-2,3.46V5h2ZM4,10.46V5H2V7A4,4,0,0,0,4,10.46ZM15.48,7.32a.57.57,0,0,1,.5.32.49.49,0,0,1-.2.53L14.29,9.51l.35,1.88a.52.52,0,0,1-.1.47.48.48,0,0,1-.35.14h0a.88.88,0,0,1-.34-.08L12,11l-1.85.89a.88.88,0,0,1-.34.08.48.48,0,0,1-.35-.14.52.52,0,0,1-.1-.47l.35-1.88L8.22,8.17A.49.49,0,0,1,8,7.64a.57.57,0,0,1,.5-.32l2.07-.27.92-1.72a.53.53,0,0,1,1,0l.92,1.72Z"/></svg>