<svg id="Layer_1" data-name="Layer 1" xmlns="http://www.w3.org/2000/svg" viewBox="0 0 32 32"><path d="M26.79,5.71a1.56,1.56,0,0,0-1-1c-4.15-1.17-9.67.6-13.92,4.85a17.71,17.71,0,0,0-4.9,8.61A2.74,2.74,0,0,0,7,19.55a2.81,2.81,0,0,0,.72,1.22l3,3a2.81,2.81,0,0,0,1.22.72,2.74,2.74,0,0,0,1.42.05,17.71,17.71,0,0,0,8.61-4.9C26.19,15.38,28,9.86,26.79,5.71ZM16.42,15a3.06,3.06,0,0,1-.84-1.57,3.08,3.08,0,0,1,1.3-3.14A3.07,3.07,0,1,1,16.42,15Z"/><path d="M8.21,11a2.65,2.65,0,0,0-3.71-.3L0,15.2l6.31.94a14.63,14.63,0,0,1,2.35-4.7Z"/><path d="M19.83,23.62l-.45-.45a14.76,14.76,0,0,1-4.69,2.34l.94,6.31,4.49-4.49A2.64,2.64,0,0,0,19.83,23.62Z"/></svg>