<svg id="Layer_1" data-name="Layer 1" xmlns="http://www.w3.org/2000/svg" viewBox="0 0 24 24"><defs><style>.cls-1{fill-rule:evenodd;}</style></defs><path class="cls-1" d="M24,12A12,12,0,1,1,12,0,12,12,0,0,1,24,12ZM12.43,8.86c-1.17.48-3.5,1.49-7,3-.57.23-.86.45-.89.67s.41.51,1,.7l.27.08a8.54,8.54,0,0,0,1.86.45A2.4,2.4,0,0,0,9,13.29q4.9-3.31,5.06-3.35a.28.28,0,0,1,.25,0,.26.26,0,0,1,.06.22A34.67,34.67,0,0,1,11.6,12.9c-.29.27-.5.46-.54.51l-.28.27c-.57.55-1,1,0,1.64l1.28.85,1.4.95c.14.09.28.18.41.28a2.28,2.28,0,0,0,1.49.62c.32,0,.65-.33.82-1.23.4-2.13,1.18-6.73,1.36-8.63a1.68,1.68,0,0,0,0-.47.5.5,0,0,0-.17-.33.83.83,0,0,0-.46-.14C16.45,7.23,15.76,7.47,12.43,8.86Z"/></svg>