<svg id="Layer_1" data-name="Layer 1" xmlns="http://www.w3.org/2000/svg" viewBox="0 0 24 16.88"><path d="M23.76,3.64a5.1,5.1,0,0,0-1-2.38,3.43,3.43,0,0,0-2.4-1C17,0,12,0,12,0h0S7,0,3.6.24a3.43,3.43,0,0,0-2.4,1,5.1,5.1,0,0,0-1,2.38A36.53,36.53,0,0,0,0,7.53V9.35a36.22,36.22,0,0,0,.24,3.88,5.13,5.13,0,0,0,1,2.38,4,4,0,0,0,2.65,1c1.92.18,8.16.24,8.16.24s5,0,8.4-.25a3.38,3.38,0,0,0,2.4-1,5.07,5.07,0,0,0,1-2.38A36.22,36.22,0,0,0,24,9.35V7.53A36.53,36.53,0,0,0,23.76,3.64ZM9.52,11.55V4.81L16,8.19Z"/></svg>