<svg id="Layer_1" data-name="Layer 1" xmlns="http://www.w3.org/2000/svg" viewBox="0 0 126.6 18.95"><defs><style>.cls-1{fill:#fff;}</style></defs><path class="cls-1" d="M118.64,9.28c0,8-5.2,9.31-10.18,9.31h-6.88V0h6.88C113.44,0,118.64,1.29,118.64,9.28Zm-4.24,0c0-5.32-2.62-5.59-5.94-5.59h-2.64V14.9h2.64C111.78,14.9,114.4,14.64,114.4,9.28Z"/><path class="cls-1" d="M120.78,15.67a2.74,2.74,0,0,1,2.88-2.88,2.82,2.82,0,0,1,2.94,2.88,2.83,2.83,0,0,1-2.94,2.92A2.75,2.75,0,0,1,120.78,15.67Z"/><path class="cls-1" d="M94.16,0V14.9L94.5,16H93.41L88.25,0H79.91V18.59h4.24V3.69l-.34-1.14H84.9l5.16,16H98.4V0Z"/><path class="cls-1" d="M50.47,0H26.15C21.49,0,19,3.77,19,9.28s2.54,9.31,7.2,9.31H50.47c4.66,0,7.2-3.77,7.2-9.28S55.13,0,50.47,0ZM48.59,14.73H28c-3.34,0-5.38-1.57-5.38-5.45s2-5.42,5.38-5.42H48.59C51.92,3.86,54,5.43,54,9.31S51.92,14.73,48.59,14.73Z"/><path class="cls-1" d="M0,0H7.56c4.65,0,8.69,1,8.69,5.08,0,3-2.6,3.82-4.95,4.07v1h2.85a2.05,2.05,0,0,1,2.35,2.2v5.8H12.07V11.8H4.43v6.4H0ZM7.56,8.19c2.63,0,4.26,0,4.26-2.27S10.19,3.63,7.56,3.63H4.43V8.19Z"/><path class="cls-1" d="M60.52.51h4.14V10.1c0,3.25.29,5.24,4.1,5.24s4.12-2,4.12-5.24V.51H77V11.93c0,4.54-2.85,7-8.26,7s-8.24-2.48-8.24-7Z"/><path class="cls-1" d="M119.54,0,122,11.42h2.83L123.94,0Z"/></svg>